<svg width="512" height="512" xmlns="http://www.w3.org/2000/svg" preserveAspectRatio="xMidYMid meet" version="1.0">

 <g>
  <title>Layer 1</title>
  <g id="svg_1" fill="#000000" transform="translate(0 512) scale(0.1 -0.1)">
   <path fill="#ffffff" id="svg_2" d="m3750,5114c-14,-2 -56,-9 -95,-15c-163,-27 -363,-113 -504,-220c-42,-31 -309,-290 -593,-575l-518,-519l188,0c213,0 320,-15 491,-71c57,-19 108,-34 114,-34c6,0 167,155 357,344c320,319 350,346 420,380c256,124 543,64 721,-150c152,-182 179,-422 73,-645c-34,-71 -60,-99 -612,-651c-552,-552 -580,-578 -651,-612c-229,-109 -452,-82 -654,81c-116,94 -147,108 -242,108c-65,0 -89,-5 -125,-24c-44,-23 -300,-266 -300,-284c0,-41 205,-264 326,-355c133,-101 334,-188 509,-223c91,-18 348,-18 440,0c177,35 365,118 504,222c117,87 1257,1237 1313,1324c150,230 218,478 204,740c-17,319 -138,588 -370,818c-181,180 -383,290 -626,343c-71,15 -317,27 -370,18z"/>
   <path fill="#ffffff" id="svg_3" d="m2120,3485c-8,-2 -49,-9 -90,-15c-151,-25 -317,-92 -465,-188c-87,-56 -1237,-1196 -1324,-1313c-237,-314 -303,-737 -175,-1117c99,-295 333,-566 614,-711c282,-146 581,-178 893,-95c119,32 294,117 393,193c44,33 312,293 596,578l518,518l-188,0c-213,0 -320,15 -491,71c-57,19 -108,34 -114,34c-6,0 -167,-155 -357,-344c-320,-319 -350,-346 -420,-380c-171,-83 -343,-87 -508,-10c-265,122 -403,402 -333,676c43,166 27,147 659,780c633,632 614,616 780,659c186,47 373,1 532,-132c104,-88 140,-104 235,-104c64,0 89,5 125,24c43,22 300,266 300,285c0,21 -98,142 -183,228c-181,180 -382,291 -627,344c-67,14 -332,28 -370,19z"/>
  </g>
 </g>
</svg>